<svg width="50" height="50" viewBox="0 0 50 50" fill="none" xmlns="http://www.w3.org/2000/svg">
<circle cx="24.6154" cy="24.5513" r="24.5513" fill="url(#paint0_radial_19_368)"/>
<path d="M25.6321 37.3793C23.7363 37.3793 22.0327 37.0876 20.5213 36.5043C19.0099 35.9209 17.7206 35.0791 16.6534 33.9787C15.5928 32.8849 14.7775 31.5658 14.2074 30.0213C13.6439 28.4768 13.3622 26.75 13.3622 24.8409C13.3622 22.9716 13.6473 21.2746 14.2173 19.75C14.794 18.2254 15.6127 16.9162 16.6733 15.8224C17.7405 14.7287 19.0133 13.8868 20.4915 13.2969C21.9763 12.7003 23.6269 12.402 25.4432 12.402C27.2197 12.402 28.8106 12.7135 30.2159 13.3366C31.6212 13.9531 32.8177 14.795 33.8054 15.8622C34.7931 16.9295 35.5455 18.1458 36.0625 19.5114C36.5862 20.8703 36.848 22.2921 36.848 23.777C36.848 24.7183 36.7751 25.6463 36.6293 26.5611C36.4901 27.4759 36.2481 28.3045 35.9034 29.0469C35.5587 29.7893 35.0814 30.3826 34.4716 30.8267C33.8617 31.2642 33.0895 31.483 32.1548 31.483C31.6643 31.483 31.1804 31.4034 30.7031 31.2443C30.2325 31.0786 29.8281 30.8101 29.4901 30.4389C29.1586 30.0611 28.9664 29.5573 28.9134 28.9276H28.8139C28.6018 29.4048 28.3035 29.8423 27.919 30.2401C27.5346 30.6312 27.0606 30.9427 26.4972 31.1747C25.9403 31.4067 25.294 31.5128 24.5582 31.4929C23.723 31.473 22.9706 31.2874 22.3011 30.9361C21.6383 30.5848 21.0715 30.1042 20.6009 29.4943C20.1368 28.8845 19.7822 28.1785 19.5369 27.3764C19.2917 26.5677 19.169 25.696 19.169 24.7614C19.169 23.8598 19.3049 23.0279 19.5767 22.2656C19.8551 21.5033 20.2363 20.8371 20.7202 20.267C21.2107 19.697 21.7841 19.2429 22.4403 18.9048C23.0966 18.5668 23.8026 18.3712 24.5582 18.3182C25.2344 18.2718 25.8575 18.3381 26.4276 18.517C26.9976 18.6894 27.4815 18.9413 27.8793 19.2727C28.277 19.6042 28.562 19.9787 28.7344 20.3963H28.8338V18.5966H30.4545V27.8139C30.4545 28.5099 30.5904 29.0535 30.8622 29.4446C31.1406 29.8291 31.5781 30.0213 32.1747 30.0213C32.8973 30.0213 33.4839 29.786 33.9347 29.3153C34.392 28.8381 34.7268 28.1354 34.9389 27.2074C35.151 26.2727 35.2571 25.1226 35.2571 23.7571C35.2571 22.723 35.1113 21.7221 34.8196 20.7543C34.5346 19.7798 34.117 18.8783 33.5668 18.0497C33.0166 17.2145 32.3404 16.4853 31.5384 15.8622C30.7363 15.2325 29.8182 14.742 28.7841 14.3906C27.7566 14.0393 26.6165 13.8636 25.3636 13.8636C23.8125 13.8636 22.4039 14.1255 21.1378 14.6491C19.8717 15.1728 18.7813 15.9219 17.8665 16.8963C16.9583 17.8707 16.259 19.0341 15.7685 20.3864C15.2779 21.732 15.0327 23.2334 15.0327 24.8906C15.0327 26.5677 15.2779 28.0824 15.7685 29.4347C16.259 30.7869 16.965 31.9437 17.8864 32.9048C18.8144 33.866 19.9347 34.6051 21.2472 35.1222C22.5597 35.6392 24.0379 35.8977 25.6818 35.8977C26.411 35.8977 27.1269 35.8248 27.8295 35.679C28.5388 35.5398 29.1818 35.3674 29.7585 35.1619C30.3419 34.9564 30.8125 34.7543 31.1705 34.5554L31.6776 35.9474C31.187 36.2126 30.6037 36.4545 29.9276 36.6733C29.2581 36.892 28.5488 37.0644 27.7997 37.1903C27.0573 37.3163 26.3348 37.3793 25.6321 37.3793ZM24.767 29.9318C25.6686 29.9318 26.4276 29.723 27.044 29.3054C27.6605 28.8878 28.1245 28.2879 28.4361 27.5057C28.7543 26.7235 28.9134 25.7822 28.9134 24.6818C28.9134 23.5748 28.7443 22.6634 28.4062 21.9474C28.0748 21.2315 27.6009 20.7012 26.9844 20.3565C26.3745 20.0052 25.652 19.8295 24.8168 19.8295C24.008 19.8295 23.2988 20.0516 22.6889 20.4957C22.0857 20.9332 21.6117 21.5199 21.267 22.2557C20.929 22.9915 20.7599 23.8002 20.7599 24.6818C20.7599 25.6165 20.9091 26.4815 21.2074 27.277C21.5123 28.0724 21.9598 28.7154 22.5497 29.206C23.1463 29.6899 23.8854 29.9318 24.767 29.9318Z" fill="white"/>
<defs>
<radialGradient id="paint0_radial_19_368" cx="0" cy="0" r="1" gradientUnits="userSpaceOnUse" gradientTransform="translate(24.6154 24.5513) rotate(90) scale(24.5513)">
<stop stop-color="#D1005E"/>
<stop offset="1"/>
</radialGradient>
</defs>
</svg>
