<svg width="29" height="30" viewBox="0 0 29 30" fill="none" xmlns="http://www.w3.org/2000/svg">
<path d="M15.2955 29.3295C12.947 29.3295 10.8636 29.0076 9.04545 28.3636C7.23485 27.7273 5.70833 26.7879 4.46591 25.5455C3.22348 24.3106 2.2803 22.7955 1.63636 21C0.992424 19.2045 0.670455 17.1553 0.670455 14.8523C0.670455 12.6098 0.996212 10.5947 1.64773 8.80682C2.29924 7.01894 3.24621 5.49621 4.48864 4.23864C5.73864 2.97348 7.25758 2.00757 9.04545 1.34091C10.8333 0.674241 12.8636 0.340908 15.1364 0.340908C17.3106 0.340908 19.2273 0.681817 20.8864 1.36364C22.5455 2.04545 23.9394 2.98106 25.0682 4.17045C26.2045 5.35985 27.0606 6.72348 27.6364 8.26136C28.2121 9.79924 28.5 11.4242 28.5 13.1364C28.5 14.3333 28.4242 15.5038 28.2727 16.6477C28.1212 17.7841 27.8409 18.8144 27.4318 19.7386C27.0303 20.6553 26.447 21.3902 25.6818 21.9432C24.9242 22.4886 23.9394 22.7727 22.7273 22.7955C22.0833 22.8182 21.4583 22.7424 20.8523 22.5682C20.2462 22.3939 19.7311 22.1136 19.3068 21.7273C18.8826 21.3333 18.625 20.8333 18.5341 20.2273H18.3977C18.2159 20.6742 17.9129 21.0909 17.4886 21.4773C17.0644 21.8561 16.5227 22.1591 15.8636 22.3864C15.2121 22.6061 14.4545 22.697 13.5909 22.6591C12.6364 22.6212 11.7765 22.4053 11.0114 22.0114C10.2462 21.6174 9.59091 21.072 9.04545 20.375C8.50758 19.678 8.0947 18.8523 7.80682 17.8977C7.51894 16.9432 7.375 15.8826 7.375 14.7159C7.375 13.5947 7.53788 12.5909 7.86364 11.7045C8.18939 10.8106 8.63258 10.0417 9.19318 9.39773C9.76136 8.74621 10.4129 8.23106 11.1477 7.85227C11.8826 7.47348 12.6591 7.23485 13.4773 7.13636C14.2727 7.04545 15.0038 7.06818 15.6705 7.20455C16.3371 7.34091 16.8902 7.54924 17.3295 7.82955C17.7765 8.10985 18.0568 8.41667 18.1705 8.75H18.3182V7.47727H21.1136V18.0227C21.1136 18.6212 21.2689 19.1288 21.5795 19.5455C21.8977 19.9621 22.3485 20.1705 22.9318 20.1705C23.6212 20.1705 24.1591 19.9167 24.5455 19.4091C24.9394 18.9015 25.2159 18.1212 25.375 17.0682C25.5417 16.0152 25.625 14.6667 25.625 13.0227C25.625 11.8712 25.4697 10.7879 25.1591 9.77273C24.8561 8.75 24.4053 7.82576 23.8068 7C23.2159 6.16667 22.4886 5.45076 21.625 4.85227C20.7614 4.25379 19.7765 3.79167 18.6705 3.46591C17.572 3.14015 16.3561 2.97727 15.0227 2.97727C13.2121 2.97727 11.6023 3.25758 10.1932 3.81818C8.78409 4.37121 7.5947 5.17045 6.625 6.21591C5.66288 7.26136 4.93182 8.51515 4.43182 9.97727C3.93939 11.4318 3.69318 13.0644 3.69318 14.875C3.69318 16.7614 3.94697 18.4356 4.45455 19.8977C4.96212 21.3523 5.71212 22.5795 6.70455 23.5795C7.69697 24.5795 8.92424 25.3371 10.3864 25.8523C11.8485 26.375 13.5341 26.6364 15.4432 26.6364C16.2917 26.6364 17.125 26.5606 17.9432 26.4091C18.7614 26.2652 19.4886 26.0985 20.125 25.9091C20.7689 25.7273 21.25 25.5795 21.5682 25.4659L22.3636 27.9545C21.8939 28.1742 21.2689 28.3902 20.4886 28.6023C19.7159 28.8144 18.875 28.9886 17.9659 29.125C17.0644 29.2614 16.1742 29.3295 15.2955 29.3295ZM14.25 19.875C15.2348 19.875 16.0265 19.678 16.625 19.2841C17.2311 18.8902 17.6667 18.303 17.9318 17.5227C18.2045 16.7348 18.3409 15.75 18.3409 14.5682C18.3333 13.4167 18.1856 12.5 17.8977 11.8182C17.6174 11.1288 17.178 10.6364 16.5795 10.3409C15.9886 10.0379 15.2273 9.88636 14.2955 9.88636C13.4394 9.88636 12.7083 10.0947 12.1023 10.5114C11.5038 10.928 11.0455 11.4924 10.7273 12.2045C10.4167 12.9167 10.2576 13.7083 10.25 14.5795C10.2576 15.4962 10.3864 16.3598 10.6364 17.1705C10.8939 17.9735 11.3106 18.625 11.8864 19.125C12.4697 19.625 13.2576 19.875 14.25 19.875Z" fill="white"/>
</svg>
