<svg width="306" height="118" viewBox="0 0 306 118" fill="none" xmlns="http://www.w3.org/2000/svg">
<g clip-path="url(#clip0_62_243)">
<path d="M75.9001 0.841721C74.5519 2.09324 74.1889 2.77114 74.1889 4.38768C74.1889 6.3171 74.0852 6.42139 70.7147 8.14223L67.2405 9.91521L65.3738 8.24652C62.6774 5.89993 60.9144 6.16066 57.4402 9.44589C53.9141 12.7311 53.2919 15.8599 55.5735 18.6237C56.8698 20.1881 56.9217 20.3445 56.2994 22.3261C55.9364 23.4211 55.2105 25.0377 54.692 25.9242C53.8623 27.2278 53.3956 27.4886 51.6326 27.4886C48.0028 27.4886 46.6028 30.148 47.0695 36.197C47.3806 39.8473 48.9881 41.5681 52.1511 41.5681C54.3808 41.5681 54.5364 41.7246 56.0401 46.0006L56.9217 48.66L55.5735 50.6416C53.0845 54.2918 54.2253 57.9942 58.7365 60.8623C61.7959 62.8439 63.0922 62.8439 65.3738 60.8102L67.1887 59.1936L70.5073 60.6537C73.7741 62.0617 73.8259 62.1138 74.1371 64.5126C74.3445 65.9727 74.863 67.3806 75.4852 67.9021C77.6112 69.8315 84.8189 69.9358 86.7375 68.0064C87.1523 67.5892 87.7745 66.0248 88.0857 64.5126C88.7079 61.8531 88.7598 61.8009 91.7154 60.5494L94.7229 59.3501L96.8489 60.8623C98.0416 61.7488 99.4935 62.4267 100.116 62.4267C102.812 62.4267 108.153 56.8992 108.153 54.1354C108.153 53.3011 107.583 51.7888 106.857 50.7459C105.249 48.3993 105.249 48.0343 106.805 44.5405C107.946 41.881 108.153 41.7246 110.279 41.4117C113.805 40.9424 115.413 38.8043 115.413 34.7369C115.413 29.6787 113.649 27.5407 109.605 27.4886C108.101 27.4886 107.22 26.2892 105.82 22.2218C105.094 20.2402 105.146 20.0838 106.701 17.8936C107.997 15.9642 108.205 15.2863 107.946 13.774C107.323 10.541 101.775 6.16066 99.0786 6.83857C98.4045 6.99501 97.16 7.7772 96.2785 8.50725L94.7229 9.81091L91.6117 8.4551C88.6042 7.04715 88.5005 6.94286 88.1375 4.59627C87.8783 2.92758 87.3079 1.78036 86.2189 0.789574C84.8707 -0.514084 84.3004 -0.670525 81.1373 -0.670525C77.9224 -0.670525 77.4038 -0.514084 75.9001 0.841721ZM82.1744 4.33553C83.6781 4.64841 83.7818 4.80486 83.7818 6.83857C83.7818 9.75877 84.4559 10.4888 88.6042 12.0532C90.5228 12.7833 92.6488 13.7219 93.271 14.1912C94.9303 15.3384 95.8119 15.182 98.1453 13.1483L100.219 11.3753L101.931 13.1483L103.642 14.9213L101.982 16.7985C99.9601 19.093 99.9601 20.1881 101.982 24.6727C102.864 26.6542 103.901 29.053 104.316 29.9394C104.99 31.6081 105.146 31.6603 107.894 31.6603H110.746V34.5283V37.3442L107.79 37.5007L104.834 37.6571L103.797 40.2645C103.279 41.6724 102.138 44.3319 101.36 46.157L99.9083 49.4422L101.671 51.4238C102.657 52.5189 103.486 53.7704 103.486 54.1876C103.486 54.6047 102.812 55.5955 101.931 56.4299L100.427 57.89L98.3008 56.0127C97.16 54.9176 95.9156 54.0833 95.5526 54.0833C95.2415 54.0833 93.5303 54.7612 91.8191 55.5434C90.108 56.3777 87.8264 57.3163 86.7375 57.6814C84.4041 58.4636 83.7818 59.5065 83.7818 62.6353V65.034H81.2928H78.8039L78.2853 61.8531L77.8187 58.6722L73.1 56.6906C66.0479 53.7182 66.5146 53.7704 64.0775 55.9605L61.9515 57.89L60.4477 56.4299C58.5291 54.5526 58.5291 53.979 60.4477 51.9974C62.2107 50.1723 62.3663 49.0251 61.1218 46.6263C60.6551 45.6877 59.6699 43.2889 58.8921 41.3074L57.5439 37.6571L54.5882 37.5007L51.6326 37.3442V34.5283V31.7124L54.5882 31.556L57.5439 31.3996L58.8921 27.7493C59.6699 25.7156 60.6551 23.369 61.1218 22.4304C62.4181 19.9795 62.2107 18.8844 60.1884 16.59L58.3217 14.5562L60.2921 12.9397L62.2107 11.3232L64.1293 13.2004C66.3072 15.3384 65.4775 15.4427 73.4111 12.1575C78.1298 10.2281 78.4409 9.86306 78.5446 5.95208C78.5965 3.86622 78.9594 3.70978 82.1744 4.33553Z" fill="#D1005E"/>
<path d="M77.2483 20.7618C76.3149 21.0225 74.4482 22.0133 73.1 22.9519C66.2034 27.6451 65.5293 38.8045 71.7518 44.9577C77.9224 51.0589 88.0857 49.5466 92.8562 41.829C94.3081 39.4824 94.4118 38.9087 94.4118 34.5806C94.4118 30.7218 94.2044 29.4181 93.271 27.6973C90.2117 21.909 83.367 18.9888 77.2483 20.7618ZM85.9078 26.0807C90.7302 29.3659 91.9228 36.2493 88.3449 40.786C86.0634 43.7062 80.3076 45.1142 77.1446 43.4455C72.5296 40.9946 70.5591 34.737 72.8926 29.8353C75.0186 25.4028 81.9669 23.4212 85.9078 26.0807Z" fill="#D1005E"/>
<path d="M28.7652 26.9151C25.5502 27.9581 20.9353 30.8783 20.2093 32.2862C19.4834 33.642 19.5352 34.1635 20.4686 37.5009C21.039 39.5867 21.4538 41.2554 21.4019 41.2554C21.3501 41.3076 19.4834 43.0284 17.3574 45.1143L13.4165 48.9209L10.6682 47.8259C5.94957 45.9486 3.77172 47.3565 1.07533 53.9791C-1.36179 59.976 -0.635841 62.479 4.2384 64.9299L6.36439 66.025L6.67552 70.0403C7.29776 77.3929 7.34961 77.2365 4.44581 78.5923C0.401231 80.4696 -0.428427 81.6689 -0.0654515 84.9541C0.24567 88.0829 1.85313 92.1504 3.71986 94.6012C5.22362 96.5828 6.31254 96.7393 10.8238 95.4356L13.8832 94.6012L15.2314 96.3742C16.0092 97.365 17.6166 99.0858 18.8093 100.181C21.2982 102.475 21.4019 102.893 20.2093 106.386C19.1722 109.411 19.8463 111.966 22.1279 113.583C24.0465 114.938 29.6467 117.181 31.1504 117.181C33.5875 117.181 35.6617 115.564 36.9062 112.696L38.1507 109.88H43.8027H49.5066L50.7511 112.696C52.0474 115.564 54.0179 117.181 56.1957 117.181C57.9587 117.181 64.6997 114.156 66.2035 112.696C67.9146 111.027 68.122 108.889 66.9813 105.031L66.2553 102.632L70.1443 98.6687L74.0333 94.6534L76.5223 95.4877C79.9447 96.635 82.0188 96.5307 83.3151 95.227C84.7152 93.819 87.3597 88.1351 87.7746 85.7363C88.3968 81.7732 84.5078 77.6015 79.6854 77.1322C76.9371 76.8714 76.2631 77.3929 76.7297 79.3223C76.9371 80.1567 77.8705 80.9389 79.478 81.6689C83.4707 83.494 83.5226 83.5462 83.367 85.4235C83.1077 87.7701 80.7225 92.1504 79.6854 92.1504C79.2187 92.1504 77.6112 91.5767 76.1075 90.8467C74.5519 90.1166 73.2555 89.543 73.1518 89.543C72.5814 89.543 61.4848 101.12 61.4848 101.693C61.4848 102.11 61.9515 103.779 62.5218 105.5C63.0922 107.169 63.4552 108.837 63.2997 109.254C62.9885 110.089 57.9587 112.487 56.4031 112.487C55.4698 112.487 54.8994 111.81 53.5512 108.994L51.8919 105.448L43.8027 105.396L35.6617 105.343L33.9505 108.942C31.9801 113.061 31.4097 113.27 26.9503 111.132C23.7354 109.619 23.6316 109.15 25.1873 105.187C25.7576 103.727 26.2243 102.215 26.2243 101.85C26.2243 101.172 15.0758 89.543 14.4536 89.543C14.298 89.543 12.8979 90.1688 11.3423 90.8988C9.78673 91.6289 8.12742 92.1504 7.66074 92.0461C6.57181 91.8375 4.39396 87.4572 4.29025 85.267C4.18654 83.6505 4.39396 83.4419 7.60888 81.8254L11.0312 80.1045V71.6568L10.9794 63.2091L7.40147 61.5404C3.87542 59.8717 3.82357 59.8196 4.18654 58.1509C4.39396 57.2122 5.0162 55.3871 5.63844 54.0834C6.98664 51.2675 8.12742 50.9547 11.1868 52.5191C12.3794 53.1448 13.8313 53.562 14.4536 53.4577C15.0758 53.3534 18.0315 50.7982 20.9871 47.6694L26.4317 42.0376L25.1873 38.3874C24.202 35.6236 24.0465 34.5285 24.4613 33.8506C25.0835 32.912 31.3578 30.5132 32.0319 30.9304C32.2912 31.0869 33.1727 32.7034 34.0024 34.5807C34.832 36.4058 35.8691 38.0745 36.3358 38.2309C37.4247 38.6481 38.6692 37.5009 38.6692 36.0408C38.6692 34.0592 36.6987 29.3139 35.3506 28.0624C33.9505 26.7587 30.8911 26.2372 28.7652 26.9151Z" fill="#D1005E"/>
<path d="M115.412 51.9976V59.2981H123.709H132.006V87.9786V116.659H140.821H149.636V87.9786V59.2981H157.881H166.125L166.955 53.4055C167.422 50.2246 167.94 46.9394 168.096 46.105L168.407 44.6971H141.91H115.412V51.9976Z" fill="white"/>
<path d="M178.466 45.3229C178.311 45.6879 177.948 49.3903 177.637 53.5621C177.326 57.7338 176.392 68.1631 175.563 76.7672C174.733 85.3714 173.696 96.7393 173.229 102.058C172.814 107.377 172.296 112.8 172.14 114.156L171.829 116.659H180.644H189.408L189.719 113.635C189.874 112.018 190.341 102.163 190.704 91.7333C191.015 81.3561 191.482 73.117 191.689 73.482C191.897 73.847 192.467 76.2458 192.934 78.8531C193.4 81.4083 195.06 88.7088 196.563 95.0185C198.067 101.328 199.83 108.785 200.452 111.601L201.593 116.711L209.164 116.555L216.734 116.399L218.186 110.923C219.016 107.899 220.831 101.12 222.179 95.8007C223.579 90.4818 225.083 84.8499 225.498 83.2855C225.913 81.7211 226.587 78.6967 226.95 76.6108C227.313 74.5771 227.676 72.9605 227.831 73.117C227.987 73.2213 228.298 76.5586 228.505 80.5218C228.92 87.1965 230.528 115.825 230.528 116.399C230.528 116.555 234.365 116.659 239.083 116.659C243.802 116.659 247.639 116.451 247.639 116.19C247.639 115.981 247.173 111.08 246.602 105.396C246.032 99.6595 244.787 85.1628 243.75 73.117C242.765 61.0712 241.78 49.7554 241.572 47.9302L241.261 44.6972L230.631 44.8015L220.001 44.9579L218.083 52.7799C216.994 57.0559 214.764 66.3901 213.105 73.482C211.445 80.5739 209.89 86.1014 209.734 85.7364C209.527 85.3714 208.179 79.4789 206.675 72.5955C205.223 65.7122 203.253 56.6908 202.371 52.5191L200.66 44.9579L189.667 44.8015C181.111 44.6972 178.622 44.8015 178.466 45.3229Z" fill="white"/>
<path d="M253.343 51.9976V59.2981H261.64H269.936V87.9786V116.659H278.751H287.566V87.9786V59.2981H295.811H304.056L304.886 53.4055C305.352 50.2246 305.871 46.9393 306.026 46.105L306.337 44.6971H279.84H253.343V51.9976Z" fill="white"/>
<path d="M38.0988 53.3536C32.706 54.9701 27.7281 59.924 26.0169 65.1387C24.8243 68.8932 24.928 74.7336 26.2762 78.3839C28.5059 84.3807 33.9505 89.3347 39.6026 90.5862C50.44 92.8806 61.3811 84.9544 62.3663 74.0557C62.6774 70.6662 62.0033 69.519 59.8773 69.8319C58.8402 69.9883 58.581 70.5098 58.0624 73.3778C57.6995 75.2551 57.0772 77.6538 56.6624 78.6446C55.729 80.9391 52.7215 83.9114 50.1807 85.1629C47.4324 86.5187 42.5582 86.7273 38.9285 85.6323C28.8689 82.7121 25.9132 68.2153 33.8987 60.7584C36.2321 58.5161 36.8543 58.3075 43.2323 56.691C45.1509 56.1695 45.4102 55.9609 45.4102 54.6573C45.4102 52.3628 42.7656 51.8935 38.0988 53.3536Z" fill="#D1005E"/>
</g>
<defs>
<clipPath id="clip0_62_243">
<rect width="306" height="118" fill="white"/>
</clipPath>
</defs>
</svg>
