<svg width="187" height="72" viewBox="0 0 187 72" fill="none" xmlns="http://www.w3.org/2000/svg">
<g clip-path="url(#clip0_57_38)">
<path d="M46.3834 0.513565C45.5595 1.2772 45.3377 1.69084 45.3377 2.6772C45.3377 3.85447 45.2743 3.91811 43.2146 4.96811L41.0914 6.04993L39.9507 5.03175C38.3029 3.59993 37.2255 3.75902 35.1023 5.76357C32.9475 7.76811 32.5673 9.6772 33.9616 11.3636C34.7538 12.3181 34.7855 12.4136 34.4052 13.6227C34.1834 14.2908 33.7397 15.2772 33.4229 15.8181C32.9158 16.6136 32.6307 16.7727 31.5533 16.7727C29.3351 16.7727 28.4795 18.3954 28.7647 22.0863C28.9548 24.3136 29.9371 25.3636 31.8701 25.3636C33.2327 25.3636 33.3278 25.459 34.2468 28.0681L34.7855 29.6908L33.9616 30.8999C32.4405 33.1272 33.1377 35.3863 35.8946 37.1363C37.7642 38.3454 38.5564 38.3454 39.9507 37.1045L41.0597 36.1181L43.0878 37.009C45.0842 37.8681 45.1158 37.8999 45.306 39.3636C45.4327 40.2545 45.7496 41.1136 46.1299 41.4318C47.4291 42.609 51.8338 42.6727 53.0062 41.4954C53.2597 41.2408 53.64 40.2863 53.8301 39.3636C54.2104 37.7408 54.2421 37.709 56.0483 36.9454L57.8862 36.2136L59.1855 37.1363C59.9143 37.6772 60.8016 38.0908 61.1818 38.0908C62.8296 38.0908 66.0935 34.7181 66.0935 33.0317C66.0935 32.5227 65.7449 31.5999 65.3013 30.9636C64.319 29.5317 64.319 29.309 65.2696 27.1772C65.9668 25.5545 66.0935 25.459 67.3927 25.2681C69.5475 24.9817 70.5299 23.6772 70.5299 21.1954C70.5299 18.109 69.4525 16.8045 66.9808 16.7727C66.0618 16.7727 65.5231 16.0408 64.6675 13.559C64.2239 12.3499 64.2556 12.2545 65.2062 10.9181C65.9984 9.74084 66.1252 9.3272 65.9668 8.40448C65.5865 6.43175 62.1958 3.75902 60.5481 4.17266C60.1361 4.26811 59.3756 4.74538 58.8369 5.19084L57.8862 5.98629L55.9849 5.15902C54.147 4.29993 54.0836 4.23629 53.8618 2.80447C53.7034 1.78629 53.3548 1.08629 52.6894 0.481747C51.8655 -0.313709 51.5169 -0.409164 49.5839 -0.409164C47.6192 -0.409164 47.3023 -0.313709 46.3834 0.513565ZM50.2177 2.64538C51.1366 2.83629 51.2 2.93175 51.2 4.17266C51.2 5.95448 51.612 6.39993 54.147 7.35447C55.3195 7.79993 56.6187 8.37266 56.999 8.65902C58.013 9.35902 58.5517 9.26357 59.9777 8.02266L61.2452 6.94084L62.2909 8.02266L63.3366 9.10447L62.3226 10.2499C61.0868 11.6499 61.0868 12.3181 62.3226 15.0545C62.8613 16.2636 63.4951 17.7272 63.7486 18.2681C64.1605 19.2863 64.2556 19.3181 65.9351 19.3181H67.6779V21.0681V22.7863L65.8717 22.8817L64.0655 22.9772L63.4317 24.5681C63.1148 25.4272 62.4177 27.0499 61.9423 28.1636L61.0551 30.1681L62.1325 31.3772C62.7346 32.0454 63.2416 32.809 63.2416 33.0636C63.2416 33.3181 62.8296 33.9227 62.2909 34.4317L61.372 35.3227L60.0727 34.1772C59.3756 33.509 58.6151 32.9999 58.3932 32.9999C58.2031 32.9999 57.1574 33.4136 56.1117 33.8908C55.066 34.3999 53.6717 34.9727 53.0062 35.1954C51.5803 35.6727 51.2 36.309 51.2 38.2181V39.6818H49.679H48.1579L47.841 37.7408L47.5558 35.7999L44.6722 34.5908C40.3626 32.7772 40.6478 32.809 39.1584 34.1454L37.8592 35.3227L36.9403 34.4317C35.7678 33.2863 35.7678 32.9363 36.9403 31.7272C38.0177 30.6136 38.1127 29.9136 37.3522 28.4499C37.067 27.8772 36.4649 26.4136 35.9896 25.2045L35.1657 22.9772L33.3595 22.8817L31.5533 22.7863V21.0681V19.3499L33.3595 19.2545L35.1657 19.159L35.9896 16.9317C36.4649 15.6908 37.067 14.259 37.3522 13.6863C38.1444 12.1908 38.0177 11.5227 36.7818 10.1227L35.641 8.88175L36.8452 7.89538L38.0177 6.90902L39.1901 8.05447C40.521 9.35902 40.014 9.42266 44.8623 7.41811C47.746 6.24084 47.9361 6.01811 47.9995 3.63175C48.0312 2.35902 48.253 2.26357 50.2177 2.64538Z" fill="#D1005E"/>
<path d="M47.2073 12.6681C46.6369 12.8272 45.4961 13.4317 44.6722 14.0045C40.4577 16.8681 40.0457 23.6772 43.8483 27.4317C47.6192 31.1545 53.8301 30.2317 56.7455 25.5226C57.6327 24.0908 57.6961 23.7408 57.6961 21.0999C57.6961 18.7454 57.5693 17.9499 56.999 16.8999C55.1293 13.3681 50.9465 11.5863 47.2073 12.6681ZM52.4992 15.9136C55.4462 17.9181 56.1751 22.1181 53.9886 24.8863C52.5943 26.6681 49.0769 27.5272 47.1439 26.509C44.3236 25.0136 43.1195 21.1954 44.5455 18.2045C45.8447 15.4999 50.0909 14.2908 52.4992 15.9136Z" fill="#D1005E"/>
<path d="M17.5787 16.4227C15.614 17.0591 12.7938 18.8409 12.3501 19.7C11.9065 20.5273 11.9382 20.8455 12.5086 22.8818C12.8571 24.1545 13.1107 25.1727 13.079 25.1727C13.0473 25.2045 11.9065 26.2545 10.6073 27.5273L8.19896 29.85L6.51948 29.1818C3.63585 28.0364 2.30494 28.8955 0.657144 32.9364C-0.832206 36.5955 -0.38857 38.1227 2.59013 39.6182L3.88935 40.2864L4.07948 42.7364C4.45974 47.2227 4.49143 47.1273 2.71688 47.9545C0.245196 49.1 -0.261817 49.8318 -0.0399986 51.8364C0.150131 53.7455 1.13247 56.2273 2.27325 57.7227C3.19221 58.9318 3.85766 59.0273 6.61455 58.2318L8.48416 57.7227L9.30805 58.8045C9.78338 59.4091 10.7657 60.4591 11.4945 61.1273C13.0156 62.5273 13.079 62.7818 12.3501 64.9136C11.7164 66.7591 12.1283 68.3182 13.5226 69.3045C14.6951 70.1318 18.1174 71.5 19.0364 71.5C20.5257 71.5 21.7932 70.5136 22.5538 68.7636L23.3143 67.0455H26.7683H30.254L31.0145 68.7636C31.8068 70.5136 33.0109 71.5 34.3418 71.5C35.4192 71.5 39.5387 69.6545 40.4577 68.7636C41.5034 67.7455 41.6301 66.4409 40.933 64.0864L40.4894 62.6227L42.866 60.2045L45.2426 57.7545L46.7636 58.2636C48.8551 58.9636 50.1226 58.9 50.9148 58.1045C51.7704 57.2455 53.3865 53.7773 53.64 52.3136C54.0203 49.8955 51.6436 47.35 48.6966 47.0636C47.0172 46.9045 46.6052 47.2227 46.8904 48.4C47.0172 48.9091 47.5875 49.3864 48.5699 49.8318C51.0099 50.9455 51.0416 50.9773 50.9465 52.1227C50.7881 53.5545 49.3304 56.2273 48.6966 56.2273C48.4114 56.2273 47.4291 55.8773 46.5101 55.4318C45.5595 54.9864 44.7673 54.6364 44.7039 54.6364C44.3553 54.6364 37.574 61.7 37.574 62.05C37.574 62.3045 37.8592 63.3227 38.2078 64.3727C38.5564 65.3909 38.7782 66.4091 38.6831 66.6636C38.493 67.1727 35.4192 68.6364 34.4686 68.6364C33.8982 68.6364 33.5496 68.2227 32.7257 66.5045L31.7117 64.3409L26.7683 64.3091L21.7932 64.2773L20.7475 66.4727C19.5434 68.9864 19.1948 69.1136 16.4696 67.8091C14.5049 66.8864 14.4416 66.6 15.3922 64.1818C15.7408 63.2909 16.026 62.3682 16.026 62.1455C16.026 61.7318 9.21299 54.6364 8.83273 54.6364C8.73766 54.6364 7.88208 55.0182 6.93143 55.4636C5.98078 55.9091 4.96675 56.2273 4.68156 56.1636C4.01611 56.0364 2.6852 53.3636 2.62182 52.0273C2.55844 51.0409 2.6852 50.9136 4.64987 49.9273L6.7413 48.8773V43.7227L6.70961 38.5682L4.52312 37.55C2.36831 36.5318 2.33662 36.5 2.55844 35.4818C2.6852 34.9091 3.06546 33.7955 3.44572 33C4.26961 31.2818 4.96675 31.0909 6.83637 32.0455C7.5652 32.4273 8.45247 32.6818 8.83273 32.6182C9.21299 32.5545 11.0192 30.9955 12.8255 29.0864L16.1527 25.65L15.3922 23.4227C14.7901 21.7364 14.6951 21.0682 14.9486 20.6545C15.3288 20.0818 19.1631 18.6182 19.5751 18.8727C19.7335 18.9682 20.2722 19.9545 20.7792 21.1C21.2862 22.2136 21.92 23.2318 22.2052 23.3273C22.8707 23.5818 23.6312 22.8818 23.6312 21.9909C23.6312 20.7818 22.427 17.8864 21.6031 17.1227C20.7475 16.3273 18.8779 16.0091 17.5787 16.4227Z" fill="#D1005E"/>
<path d="M70.5298 31.7273V36.1819H75.6H80.6701V53.6819V71.1819H86.0571H91.4441V53.6819V36.1819H96.4826H101.521L102.028 32.5864C102.313 30.6455 102.63 28.641 102.725 28.1319L102.915 27.2728H86.7226H70.5298V31.7273Z" fill="black"/>
<path d="M109.063 27.6545C108.968 27.8773 108.746 30.1363 108.556 32.6818C108.366 35.2273 107.795 41.5909 107.288 46.8409C106.781 52.0909 106.148 59.0273 105.862 62.2727C105.609 65.5182 105.292 68.8273 105.197 69.6545L105.007 71.1818H110.394H115.749L115.939 69.3364C116.034 68.35 116.319 62.3363 116.541 55.9727C116.731 49.6409 117.017 44.6136 117.143 44.8363C117.27 45.0591 117.619 46.5227 117.904 48.1136C118.189 49.6727 119.203 54.1273 120.122 57.9773C121.041 61.8273 122.118 66.3773 122.499 68.0954L123.196 71.2136L127.822 71.1182L132.449 71.0227L133.336 67.6818C133.843 65.8363 134.952 61.7 135.776 58.4545C136.632 55.2091 137.551 51.7727 137.804 50.8182C138.058 49.8636 138.47 48.0182 138.691 46.7454C138.913 45.5045 139.135 44.5182 139.23 44.6136C139.325 44.6773 139.515 46.7136 139.642 49.1318C139.896 53.2045 140.878 70.6727 140.878 71.0227C140.878 71.1182 143.223 71.1818 146.106 71.1818C148.99 71.1818 151.335 71.0545 151.335 70.8954C151.335 70.7682 151.05 67.7773 150.701 64.3091C150.353 60.8091 149.592 51.9636 148.958 44.6136C148.356 37.2636 147.754 30.3591 147.628 29.2454L147.437 27.2727L140.941 27.3363L134.445 27.4318L133.273 32.2045C132.607 34.8136 131.245 40.5091 130.231 44.8363C129.217 49.1636 128.266 52.5364 128.171 52.3136C128.044 52.0909 127.22 48.4954 126.301 44.2954C125.414 40.0954 124.21 34.5909 123.671 32.0454L122.625 27.4318L115.908 27.3363C110.679 27.2727 109.158 27.3363 109.063 27.6545Z" fill="black"/>
<path d="M154.821 31.7273V36.1819H159.891H164.961V53.6819V71.1819H170.348H175.735V53.6819V36.1819H180.773H185.812L186.319 32.5864C186.604 30.6455 186.921 28.641 187.016 28.1319L187.206 27.2728H171.013H154.821V31.7273Z" fill="black"/>
<path d="M23.2826 32.5546C19.987 33.5409 16.9449 36.5637 15.8992 39.7455C15.1704 42.0364 15.2338 45.6 16.0577 47.8273C17.4203 51.4864 20.7475 54.5091 24.2016 55.2728C30.8244 56.6728 37.5107 51.8364 38.1127 45.1864C38.3029 43.1182 37.8909 42.4182 36.5917 42.6091C35.9579 42.7046 35.7995 43.0228 35.4826 44.7728C35.2608 45.9182 34.8805 47.3819 34.627 47.9864C34.0566 49.3864 32.2187 51.2 30.666 51.9637C28.9865 52.7909 26.0078 52.9182 23.7896 52.25C17.6421 50.4682 15.8358 41.6228 20.7158 37.0728C22.1418 35.7046 22.5221 35.5773 26.4197 34.5909C27.5922 34.2728 27.7507 34.1455 27.7507 33.35C27.7507 31.95 26.1345 31.6637 23.2826 32.5546Z" fill="#D1005E"/>
</g>
<defs>
<clipPath id="clip0_57_38">
<rect width="187" height="72" fill="white"/>
</clipPath>
</defs>
</svg>
