<svg width="50" height="50" viewBox="0 0 50 50" fill="none" xmlns="http://www.w3.org/2000/svg">
<circle cx="24.5513" cy="24.5513" r="24.5513" fill="url(#paint0_radial_19_364)"/>
<path d="M16.9258 12.0169C18.027 11.6635 23.1658 16.9642 23.1657 18.0243C23.1657 19.0844 20.8986 20.4195 19.4952 21.5581C17.8031 22.9309 27.5704 31.4527 28.6715 30.3925C29.7726 29.3324 30.4329 26.9496 32.342 27.2121C34.9114 27.5655 39.5363 32.8662 38.949 33.573L38.9488 33.5732C37.4806 35.34 36.0125 37.1068 34.5444 37.8135C33.0762 38.5203 26.8362 37.4601 19.1282 30.3925C11.4201 23.325 11.4201 19.0844 12.5212 16.2574C13.6223 13.4304 15.8247 12.3703 16.9258 12.0169Z" stroke="white"/>
<defs>
<radialGradient id="paint0_radial_19_364" cx="0" cy="0" r="1" gradientUnits="userSpaceOnUse" gradientTransform="translate(24.5513 24.5513) rotate(90) scale(24.5513)">
<stop stop-color="#D1005E"/>
<stop offset="1"/>
</radialGradient>
</defs>
</svg>
