<svg width="31" height="30" viewBox="0 0 31 30" fill="none" xmlns="http://www.w3.org/2000/svg">
<path d="M6.92584 2.01688C8.02697 1.6635 13.1658 6.96419 13.1657 8.02431C13.1657 9.08443 10.8986 10.4195 9.49518 11.5581C7.80312 12.9309 17.5704 21.4527 18.6715 20.3925C19.7726 19.3324 20.4329 16.9496 22.342 17.2121C24.9114 17.5655 29.5363 22.8662 28.949 23.573L28.9488 23.5732C27.4806 25.34 26.0125 27.1068 24.5444 27.8135C23.0762 28.5203 16.8362 27.4601 9.12815 20.3925C1.42007 13.325 1.42009 9.08444 2.52121 6.25742C3.62233 3.43039 5.82471 2.37026 6.92584 2.01688Z" stroke="white" stroke-width="3"/>
</svg>
